PathFileType	4	(X/Y/Z)	C:/Users/beibeiliu/ov580/test_trc/User1\sequence.3_training_dense_left.trc
DataRate	CameraRate	NumFrames	NumMarkers	Units	OrigDataRate	OrigDataStartFrame	OrigNumFrames
120	120	22	19	mm	120	61	242
Frame#	Time	ThumbCMC			ThumbMCP			ThumbIP			ThumbTip			IndexMCP			IndexPIP			IndexTip			MiddleMCP			MiddlePIP			MiddleTip			RingMCP			RingPIP			RingTip			PinkyMCP			PinkyPIP			PinkyTip			BackHand1			BackHand2			BackHand3	
		X0	Y0	Z0	X1	Y1	Z1	X2	Y2	Z2	X3	Y3	Z3	X4	Y4	Z4	X5	Y5	Z5	X6	Y6	Z6	X7	Y7	Z7	X8	Y8	Z8	X9	Y9	Z9	X10	Y10	Z10	X11	Y11	Z11	X12	Y12	Z12	X13	Y13	Z13	X14	Y14	Z14	X15	Y15	Z15	X16	Y16	Z16	X17	Y17	Z17	X18	Y18	Z18	
60	0.5	-212.516	100.896	27.1167	-209.296	124.731	0.873248	-200.827	135.94	-29.6545	-178.904	134.362	-44.5588	-201.398	89.8388	-59.3754	-181.737	114.739	-71.5226	-182.826	124.062	-33.785	-180.593	82.3064	-67.9673	-161.441	109.528	-70.3899	-164.219	117.973	-28.3675	-155.959	73.8821	-59.991	-139.394	104.433	-57.5084	-143.373	112.989	-27.1061	-141.059	63.6614	-42.4905	-129.577	91.391	-47.171	-136.586	107.35	-19.104	-174.728	44.9021	-7.01247	-177.039	40.5211	31.4939	-202.273	59.8351	10.8937	
61	0.508333	-212.29	108.549	26.4426	-207.783	134.86	2.20364	-198.443	145.047	-24.2813	-174.032	142.911	-45.8691	-201.919	97.4863	-59.5933	-180.368	122.486	-69.3907	-182.279	132.283	-34.5844	-182.037	89.9595	-68.8228	-160.166	116.056	-66.6306	-162.108	119.191	-27.7763	-157.848	76.3244	-59.3938	-141.634	107.332	-57.9116	-140.891	111.099	-23.4929	-142.213	64.8001	-46.2105	-132.5	93.9682	-46.769	-140.135	104.303	-18.0721	-178.775	48.7047	-8.81402	-181.773	44.6098	26.504	-211.753	68.2745	12.463	
62	0.516667	-209.399	115.619	28.666	-202.248	141.62	1.18747	-192.693	150.06	-20.7756	-170.59	145.553	-44.448	-204.351	108.981	-61.524	-181.565	129.395	-69.6044	-179.054	133.961	-31.2801	-187.017	95.4663	-67.3676	-162.637	122.203	-66.4943	-158.506	119.711	-28.2973	-163.583	81.6336	-61.9806	-144.911	108.523	-59.9396	-143.667	110.372	-23.2693	-151.313	66.1655	-47.1584	-135.671	92.8592	-48.9431	-138.784	104.604	-16.616	-189.301	53.4154	-4.80401	-190.191	50.296	26.7559	-213.436	76.0546	11.6315	
63	0.525	-203.998	121.86	29.5025	-194.059	147.682	5.4795	-184.997	155.162	-19.9586	-165.392	148.425	-42.9722	-206.203	118.937	-58.1253	-178.898	136.035	-66.2528	-175.049	140.305	-30.6135	-189.95	101.766	-68.1812	-164.083	122.466	-69.1202	-159.987	123.807	-29.0802	-173.955	83.5874	-60.9127	-147.719	107.736	-59.8668	-144.414	107.218	-26.7397	-163.941	67.3138	-47.3779	-141.029	89.2667	-52.6011	-142.884	102.724	-20.5647	-198.103	61.1185	-6.38901	-196.672	49.5527	27.2521	-218.965	85.4507	11.3425	
64	0.533333	-195.821	126.398	29.914	-177.957	150.979	10.2857	-170.367	161.334	-21.455	-155.505	148.976	-42.0154	-204.85	130.408	-56.973	-174.694	141.311	-65.1017	-166.032	144.321	-33.8348	-197.122	112.444	-66.3327	-162.652	123.445	-68.1126	-156.132	120.304	-29.6365	-182.218	87.5933	-64.8453	-152.268	103.19	-63.5246	-149.065	103.804	-28.6343	-176.251	71.6267	-50.2724	-150.535	87.052	-55.8804	-139.387	95.3992	-26.454	-208.61	68.2079	-6.81811	-207.053	59.875	26.3013	-218.602	98.4651	15.2334	
65	0.541667	-187.413	129.328	32.2963	-168.362	149.968	6.15323	-158.206	156.567	-15.2951	-148.529	147.317	-43.5681	-205.828	138.392	-49.1187	-174.269	141.312	-65.4466	-159.051	140.909	-32.17	-199.737	119.559	-64.0843	-164.557	120.688	-69.5614	-153.234	114.101	-35.0411	-190.686	96.8158	-63.1283	-157.605	102.033	-63.7094	-151.197	96.899	-31.7981	-186.115	75.1829	-53.4728	-159.008	81.6024	-59.6621	-146.968	93.5467	-30.0915	-214.881	75.8156	-3.23733	-216.467	64.3894	24.7035	-219.301	103.544	18.9184	
66	0.55	-179.076	130.704	34.0441	-157.443	147.863	10.88	-149.576	153.949	-17.2979	-141.433	143.515	-46.3933	-202.25	144.852	-45.5819	-174.143	143.41	-66.8718	-154.109	138.85	-36.5128	-200.978	123.272	-63.0374	-168.983	124.882	-72.6648	-154.422	111.423	-34.5452	-196.66	99.4693	-62.7062	-163.449	96.9658	-67.8891	-153.385	93.947	-37.4966	-198.535	75.4324	-50.8341	-170.423	82.6966	-60.8407	-150.56	82.2896	-34.9177	-221.216	84.2499	-0.600552	-219.362	71.8163	26.9794	-217.186	111.581	22.9772	
67	0.558333	-172.521	130.477	34.3135	-148.997	141.435	10.0271	-140.186	149.711	-18.7926	-140.128	133.964	-46.8403	-196.546	145.919	-45.7619	-170.983	142.592	-66.6801	-148.883	133.334	-39.9206	-200.382	126.345	-60.1707	-167.759	119.92	-71.9239	-154.756	105.536	-39.0108	-200.894	103.322	-61.6834	-166.857	96.3649	-66.8682	-158.108	89.91	-36.7622	-202.783	80.3328	-54.5242	-173.88	80.1641	-60.9634	-159.311	79.3791	-31.1402	-225.285	91.1705	-0.143186	-221.96	80.1873	27.9479	-212.855	117.445	23.5535	
68	0.566667	-165.521	126.479	33.7815	-140.757	135.53	8.12814	-134.851	139.676	-17.7926	-133.288	127.674	-49.0182	-187.551	149.849	-48.5399	-161.176	138.012	-66.9778	-147.431	123.298	-39.5684	-197.998	130.25	-61.4307	-168.971	117.682	-74.2422	-153.938	103.518	-41.064	-201.943	108.467	-60.5117	-170.516	95.3045	-69.2616	-161.507	82.8088	-41.0375	-208.737	82.5196	-54.9205	-178.363	81.1971	-61.3231	-164.39	79.1291	-33.0625	-224.787	99.6811	-3.26982	-226.654	84.5595	28.5288	-208.408	120.25	21.5317	
69	0.575	-163.277	119.435	31.4356	-137.69	127.709	3.5031	-128.221	132.844	-22.3877	-129.187	119.517	-51.1054	-177.159	152.322	-49.0982	-155.439	133.826	-66.796	-144.844	117.172	-39.5406	-191.614	130.9	-64.7892	-166.264	113.997	-75.3982	-155.272	97.6545	-38.9168	-201.279	107.48	-63.6067	-173.604	91.5312	-72.0642	-163.59	81.8689	-40.82	-210.539	87.0924	-57.3036	-181.381	80.7864	-62.0671	-167.587	73.4935	-35.3822	-226.079	103.023	-1.10164	-226.512	87.4662	30.433	-204.089	122.533	21.8501	
70	0.583333	-156.354	116.107	29.7296	-135.284	116.671	2.25971	-123.029	120.992	-25.3601	-128.64	109.611	-54.5509	-167.685	149.712	-50.9155	-149.509	132.591	-70.2719	-142.258	108.226	-38.5327	-183.969	133.572	-62.5855	-162.86	110.446	-76.1472	-153.181	93.8668	-42.1113	-200.054	110.354	-65.2279	-170.508	89.3738	-70.1723	-168.528	77.5733	-37.3803	-210.783	90.1644	-60.1888	-186.155	75.8559	-65.4427	-173.66	72.5796	-31.6904	-224.244	109.44	-5.80188	-222.46	96.5466	28.6551	-198.244	124.243	20.8894	
71	0.591667	-152.594	111.833	24.0999	-127.92	105.65	1.39876	-122.202	107.214	-28.6796	-127.244	95.5985	-58.1792	-162.221	140.95	-54.8972	-144.294	118.96	-70.6045	-141.248	99.6261	-39.8064	-179.071	131.694	-65.5247	-157.842	106.251	-77.8809	-155.161	85.174	-41.8334	-193.519	111.322	-68.6175	-174.98	87.9606	-75.6259	-171.931	73.2959	-40.1128	-213.224	93.6866	-57.6196	-187.663	76.0475	-64.6872	-176.456	69.1416	-32.4683	-219.543	115.268	-9.05933	-223.355	102.533	24.8696	-189.949	127.764	17.8615	
72	0.6	-148.59	102.337	25.3824	-126.366	94.1777	-2.92974	-117.28	93.0962	-32.3165	-130.731	83.6792	-59.4053	-153.972	135.082	-58.2917	-143.155	110.213	-75.92	-138.616	90.1008	-47.2288	-174.003	125.495	-71.4508	-159.85	94.7369	-80.74	-158.991	76.2087	-48.3645	-192.91	110.176	-71.1315	-174.525	81.8968	-77.3529	-172.267	69.3507	-44.0353	-209.505	97.657	-59.0858	-191.722	74.1869	-67.7315	-182.006	62.0725	-36.1594	-216.873	118.815	-8.54871	-219.755	107.608	26.3021	-186.086	124.976	16.043	
73	0.608333	-148.137	94.7394	22.8435	-129.071	84.3292	-8.03745	-121.506	79.5839	-38.4384	-131.016	68.2732	-62.5004	-146.254	126.747	-58.8854	-137.911	100.349	-79.2215	-141.682	79.3291	-47.7817	-166.854	121.114	-71.2017	-160.412	91.1249	-85.6808	-162.512	67.5908	-50.1225	-189.346	110.664	-70.9638	-176.791	77.5324	-78.8914	-178.212	63.3915	-47.5342	-208.643	97.5173	-64.0358	-197.021	70.9317	-69.3182	-186.09	64.3163	-37.0368	-206.373	122.681	-11.8251	-218.035	112.99	19.1126	-178.904	123.798	11.439	
74	0.616667	-148.309	88.7731	18.4633	-126.877	71.5646	-9.37383	-124.128	66.5889	-40.9437	-133.684	56.0426	-65.1575	-143.382	115.973	-63.212	-141.716	89.198	-82.1492	-140.43	69.0807	-52.0499	-163.563	113.101	-76.6018	-161.84	81.5931	-87.5727	-162.707	58.5894	-56.6946	-186.712	106.96	-71.8779	-182.831	70.1741	-82.0834	-182.705	57.2418	-55.3697	-211.578	97.0502	-64.075	-199.89	72.7397	-70.8903	-189.682	60.2783	-41.1147	-205.643	120.188	-12.0508	-208.913	116.847	21.6584	-171.701	120.368	10.2701	
75	0.625	-143.686	81.7138	16.3281	-131.399	61.4636	-11.8087	-125.965	53.7585	-38.5872	-138.698	43.9201	-64.7509	-143.601	106.311	-67.2432	-144.786	75.7421	-83.1135	-142.694	58.425	-53.9386	-162.281	104.948	-77.8657	-165.309	71.9136	-89.95	-169.454	49.762	-55.0631	-189.095	99.2555	-75.9635	-183.945	66.2505	-83.9456	-188.525	49.4354	-51.2469	-209.577	95.9662	-62.1446	-205.16	67.6156	-72.1267	-191.857	55.108	-42.3358	-194.968	121.046	-17.8723	-203.799	117.338	20.9179	-169.066	117.468	9.2879	
76	0.633333	-142.41	74.7696	13.7309	-132.891	50.8976	-10.0946	-133.475	43.876	-39.0664	-142.962	31.9693	-64.5672	-136.633	93.5585	-66.606	-142.386	64.1453	-85.5603	-149.779	48.1421	-54.8991	-161.346	93.7503	-81.138	-169.055	61.2397	-90.5296	-173.498	39.8423	-59.2076	-184.446	93.259	-75.8612	-191.545	57.5399	-83.1787	-194.713	43.5392	-55.4631	-210.959	92.3044	-65.3163	-207.778	64.1548	-72.0453	-196.659	47.5154	-40.2936	-192.791	117.332	-15.9147	-201.789	120.106	14.0975	-163.268	114.012	2.59238	
77	0.641667	-147.114	70.2913	15.719	-138.36	44.6732	-9.74878	-136.11	30.9493	-36.0426	-148.074	21.5742	-59.3383	-139.739	82.5478	-68.5611	-147.146	52.3077	-84.8336	-154.833	37.2678	-51.7208	-159.884	84.5361	-80.0957	-168.745	53.2537	-90.054	-181.277	33.3015	-58.3276	-186.462	84.8529	-77.2677	-195.306	51.0065	-81.44	-199.146	36.0668	-52.0913	-208.068	87.6392	-66.1502	-208.424	58.2825	-69.8988	-199.898	44.5707	-44.5366	-189.481	117.539	-20.0899	-197.293	118.117	14.3071	-160.59	109.256	0.929646	
78	0.65	-144.397	63.2375	18.12	-140.892	36.8874	-8.90419	-142.128	23.1101	-32.1666	-156.233	15.0134	-54.8997	-139.918	69.1878	-69.6663	-148.523	41.9205	-83.3944	-159.078	27.754	-52.3755	-164.81	77.8717	-78.5352	-174.278	40.5413	-86.7838	-183.179	23.4287	-56.1261	-186.37	80.3243	-75.0795	-198.951	45.5983	-81.7695	-203.146	29.9719	-55.8413	-208.634	84.9834	-61.576	-210.991	52.6577	-67.7621	-204.62	36.141	-43.227	-185.615	110.205	-18.4552	-192.302	115.823	11.6338	-156.231	101.116	1.74345	
79	0.658333	-146.103	59.4254	17.1417	-143.487	29.4529	-3.76769	-143.96	12.0498	-27.9983	-160.694	3.2147	-50.8351	-142.173	60.3254	-66.8689	-155.489	29.4284	-77.3148	-162.826	18.0272	-48.4139	-165.429	66.8293	-78.5954	-174.375	34.7265	-85.641	-189.541	17.7282	-54.269	-186.43	69.093	-77.397	-200.465	39.2925	-79.3015	-204.905	22.3674	-53.3543	-209.121	78.3227	-62.1433	-214.983	50.0371	-68.14	-208.476	30.3139	-43.4857	-185.838	106.746	-19.755	-186.993	115.438	9.98018	-154.062	98.6442	0.0505635	
80	0.666667	-146.87	56.8568	18.3696	-144.626	23.2563	3.30217	-149.232	8.85762	-23.3739	-165.166	-3.04222	-42.0765	-142.45	49.4033	-68.2053	-158.181	20.3416	-73.228	-163.205	11.2132	-40.4605	-165.695	57.994	-76.6293	-179.453	24.8067	-81.5866	-190.276	10.0042	-50.0825	-185.69	63.8873	-72.3988	-197.136	33.403	-77.4133	-205.143	15.3256	-47.5242	-212.381	71.6728	-62.4459	-212.458	45.5858	-64.1608	-211.375	23.5387	-41.211	-183.428	104.267	-25.9447	-183.887	111.257	10.7214	-152.537	94.1321	0.876831	
81	0.675	-142.413	52.1094	22.0085	-145.505	19.1447	4.102	-150.098	1.688	-18.7803	-168.273	-10.2384	-36.4613	-143.212	42.2192	-63.4946	-159.891	15.0819	-71.114	-167.854	8.23001	-35.4028	-163.766	48.1009	-74.2901	-177.068	15.6251	-77.5715	-194.836	4.91597	-44.0967	-188.919	57.4361	-70.6532	-202.139	26.9889	-74.539	-207.17	9.23378	-42.194	-208.108	63.2596	-59.4812	-213.345	37.5785	-61.0373	-214.545	16.8954	-35.524	-183.723	99.3495	-23.585	-186.544	110.196	7.68341	-152.174	89.7931	-1.045	
